<svg xmlns="http://www.w3.org/2000/svg" width="450" height="400">
    <style>
        path {
            fill: #0369A1;
        }
        @media (prefers-color-scheme: dark) {
            path {
                fill: #ffffff;
            }
        }
    </style>
    <path fill-rule="evenodd" d="M 435.191406 39.710938 L 411.875 313.425781 C 410.992188 323.777344 400.371094 331.828125 387.585938 331.828125 L 205.003906 331.828125 C 201.421875 331.828125 199.078125 327.980469 200.800781 324.839844 C 215.046875 298.515625 224.339844 260.335938 224.339844 241.800781 C 224.339844 211.847656 200.050781 187.605469 170.144531 187.605469 C 140.238281 187.605469 115.949219 211.894531 115.949219 241.800781 C 115.949219 260.335938 125.28125 298.515625 139.484375 324.839844 C 141.210938 328.023438 138.863281 331.828125 135.28125 331.828125 L 83.652344 331.828125 C 70.734375 331.828125 60.027344 323.644531 59.320312 313.160156 L 40.695312 39.445312 C 39.941406 28.121094 51.046875 18.5625 65.027344 18.5625 L 278.445312 18.5625 C 282.027344 18.5625 284.328125 22.414062 282.648438 25.554688 C 268.578125 51.875 259.378906 89.65625 259.378906 108.105469 C 259.378906 138.054688 283.664062 162.300781 313.574219 162.300781 C 343.523438 162.300781 367.765625 138.011719 367.765625 108.105469 C 367.765625 89.65625 358.566406 51.875 344.496094 25.554688 C 342.816406 22.367188 345.117188 18.5625 348.699219 18.5625 L 410.902344 18.5625 C 425.015625 18.5625 436.164062 28.296875 435.191406 39.710938 Z M 435.191406 39.710938 "/>
</svg>
