<svg xmlns="http://www.w3.org/2000/svg" xmlns:xlink="http://www.w3.org/1999/xlink" width="1920" zoomAndPan="magnify" viewBox="0 0 1440 434.999989" height="580" preserveAspectRatio="xMidYMid meet" version="1.0"><defs><g/></defs><path fill="#0ea5e9" d="M 435.191406 39.710938 L 411.875 313.425781 C 410.992188 323.777344 400.371094 331.828125 387.585938 331.828125 L 205.003906 331.828125 C 201.421875 331.828125 199.078125 327.980469 200.800781 324.839844 C 215.046875 298.515625 224.339844 260.335938 224.339844 241.800781 C 224.339844 211.847656 200.050781 187.605469 170.144531 187.605469 C 140.238281 187.605469 115.949219 211.894531 115.949219 241.800781 C 115.949219 260.335938 125.28125 298.515625 139.484375 324.839844 C 141.210938 328.023438 138.863281 331.828125 135.28125 331.828125 L 83.652344 331.828125 C 70.734375 331.828125 60.027344 323.644531 59.320312 313.160156 L 40.695312 39.445312 C 39.941406 28.121094 51.046875 18.5625 65.027344 18.5625 L 278.445312 18.5625 C 282.027344 18.5625 284.328125 22.414062 282.648438 25.554688 C 268.578125 51.875 259.378906 89.65625 259.378906 108.105469 C 259.378906 138.054688 283.664062 162.300781 313.574219 162.300781 C 343.523438 162.300781 367.765625 138.011719 367.765625 108.105469 C 367.765625 89.65625 358.566406 51.875 344.496094 25.554688 C 342.816406 22.367188 345.117188 18.5625 348.699219 18.5625 L 410.902344 18.5625 C 425.015625 18.5625 436.164062 28.296875 435.191406 39.710938 Z M 435.191406 39.710938 " fill-opacity="1" fill-rule="nonzero"/><g fill="#ffffff" fill-opacity="1"><g transform="translate(475.45537, 325.855038)"><g><path d="M 92.125 -190.1875 L 92.125 0 L 22.28125 0 L 22.28125 -306.46875 L 92.125 -306.46875 L 213.96875 -116.265625 L 214.703125 -116.265625 L 214.703125 -306.46875 L 284.546875 -306.46875 L 284.546875 0 L 214.703125 0 L 92.875 -190.1875 Z M 92.125 -190.1875 "/></g></g></g><g fill="#ffffff" fill-opacity="1"><g transform="translate(782.286377, 325.855038)"><g><path d="M 35.28125 -23.578125 C 17.457031 -43.023438 8.546875 -66.863281 8.546875 -95.09375 C 8.546875 -123.320312 17.457031 -147.21875 35.28125 -166.78125 C 53.113281 -186.351562 75.773438 -196.140625 103.265625 -196.140625 C 128.523438 -196.140625 149.328125 -188.210938 165.671875 -172.359375 L 165.671875 -190.5625 L 231.421875 -190.5625 L 231.421875 0 L 166.421875 0 L 166.421875 -21.546875 L 165.671875 -21.546875 C 149.328125 -3.460938 128.523438 5.578125 103.265625 5.578125 C 75.773438 5.578125 53.113281 -4.140625 35.28125 -23.578125 Z M 91.1875 -127.40625 C 82.644531 -118.988281 78.375 -108.21875 78.375 -95.09375 C 78.375 -81.96875 82.457031 -71.253906 90.625 -62.953125 C 98.800781 -54.660156 109.578125 -50.515625 122.953125 -50.515625 C 135.828125 -50.515625 146.410156 -54.722656 154.703125 -63.140625 C 163.003906 -71.566406 167.15625 -82.21875 167.15625 -95.09375 C 167.15625 -108.21875 162.882812 -118.988281 154.34375 -127.40625 C 145.800781 -135.832031 135.335938 -140.046875 122.953125 -140.046875 C 110.328125 -140.046875 99.738281 -135.832031 91.1875 -127.40625 Z M 91.1875 -127.40625 "/></g></g></g><g fill="#ffffff" fill-opacity="1"><g transform="translate(1035.99771, 325.855038)"><g><path d="M 218.421875 -166.96875 C 236.253906 -147.53125 245.171875 -123.695312 245.171875 -95.46875 C 245.171875 -67.238281 236.253906 -43.335938 218.421875 -23.765625 C 200.585938 -4.203125 177.925781 5.578125 150.4375 5.578125 C 125.1875 5.578125 104.382812 -2.347656 88.03125 -18.203125 L 88.03125 96.578125 L 22.28125 96.578125 L 22.28125 -190.5625 L 87.296875 -190.5625 L 87.296875 -169.015625 L 88.03125 -169.015625 C 104.382812 -187.097656 125.1875 -196.140625 150.4375 -196.140625 C 177.925781 -196.140625 200.585938 -186.414062 218.421875 -166.96875 Z M 162.515625 -63.140625 C 171.054688 -71.566406 175.328125 -82.34375 175.328125 -95.46875 C 175.328125 -108.59375 171.238281 -119.300781 163.0625 -127.59375 C 154.894531 -135.894531 144.125 -140.046875 130.75 -140.046875 C 117.875 -140.046875 107.285156 -135.832031 98.984375 -127.40625 C 90.691406 -118.988281 86.546875 -108.34375 86.546875 -95.46875 C 86.546875 -82.34375 90.816406 -71.566406 99.359375 -63.140625 C 107.910156 -54.722656 118.375 -50.515625 130.75 -50.515625 C 143.382812 -50.515625 153.972656 -54.722656 162.515625 -63.140625 Z M 162.515625 -63.140625 "/></g></g></g><g fill="#ffffff" fill-opacity="1"><g transform="translate(1289.709044, 325.855038)"><g><path d="M 28.609375 -296.796875 C 36.285156 -304.472656 45.445312 -308.3125 56.09375 -308.3125 C 66.738281 -308.3125 75.898438 -304.472656 83.578125 -296.796875 C 91.253906 -289.117188 95.09375 -279.957031 95.09375 -269.3125 C 95.09375 -258.664062 91.253906 -249.503906 83.578125 -241.828125 C 75.898438 -234.148438 66.738281 -230.3125 56.09375 -230.3125 C 45.445312 -230.3125 36.285156 -234.148438 28.609375 -241.828125 C 20.929688 -249.503906 17.09375 -258.664062 17.09375 -269.3125 C 17.09375 -279.957031 20.929688 -289.117188 28.609375 -296.796875 Z M 22.28125 -190.5625 L 22.28125 0 L 88.03125 0 L 88.03125 -190.5625 Z M 22.28125 -190.5625 "/></g></g></g></svg>
